<svg viewBox="0 0 512 512" xmlns="http://www.w3.org/2000/svg" xmlns:xlink="http://www.w3.org/1999/xlink" overflow="hidden"><defs></defs><g id="Art-2"><path d="M505.33 233.47 400.48 51.13C392.07 36.57 376.84 27.69 361.16 27.69L151.44 27.69C134.64 27.69 119.97 37.54 112.12 51.12L7.26 233.09C-0.85101 247.204-0.85101 264.566 7.26 278.68L112.11 461.85C120.51 476.41 135.75 486.12 151.43 486.12L361.14 486.12C377.95 486.12 392.62 475.52 400.47 461.96L505.32 279.61C513.445 265.304 513.449 247.779 505.33 233.47Z" fill="#4285F4"/><path d="M251.1 205.44 159.25 205.44 153.86 210.59 107.86 256.87 337 486.12 361.1 486.12C377.91 486.12 392.58 475.52 400.43 461.96L476.9 329 414.53 266.63 414.7 266.52 353.55 205.38 261.49 205.38Z" opacity="0.07"/><g id="Layer_1-2"><path d="M159.03 205.41 205.08 159.13 251.12 205.41 205.08 251.7 159.03 205.41Z" fill="#FFFFFF"/><path d="M107.82 256.9 153.86 210.62 199.91 256.9 153.86 303.18 107.82 256.9Z" fill="#FFFFFF"/><path d="M159.04 308.39 205.08 262.11 251.12 308.39 205.08 354.68 159.04 308.39Z" fill="#FFFFFF"/><path d="M261.47 205.41 307.5 159.13 353.56 205.41 307.5 251.7 261.47 205.41Z" fill="#FFFFFF"/><path d="M312.68 256.9 358.73 210.62 404.77 256.9 358.73 303.19 312.68 256.9Z" fill="#FFFFFF"/><path d="M261.47 308.39 307.5 262.11 353.54 308.39 307.5 354.68 261.47 308.39Z" fill="#FFFFFF"/></g></g></svg>